<svg xmlns="http://www.w3.org/2000/svg" xmlns:xlink="http://www.w3.org/1999/xlink" width="940" height="494.2"><rect width="940" height="494.2" rx="5" ry="5" class="a"/><svg y="0%" x="0%"><circle cx="20" cy="20" r="6" fill="#ff5f58"/><circle cx="40" cy="20" r="6" fill="#ffbd2e"/><circle cx="60" cy="20" r="6" fill="#18c132"/></svg><svg height="434.2" viewBox="0 0 90 43.42" width="900" x="15" xmlns="http://www.w3.org/2000/svg" xmlns:xlink="http://www.w3.org/1999/xlink" y="50"><style>@keyframes o{0%{transform:translateX(0)}2.62%{transform:translateX(-90px)}3.15%{transform:translateX(-180px)}3.67%{transform:translateX(-270px)}4.2%{transform:translateX(-360px)}4.72%{transform:translateX(-450px)}5.25%{transform:translateX(-540px)}5.77%{transform:translateX(-630px)}6.3%{transform:translateX(-720px)}6.82%{transform:translateX(-810px)}7.35%{transform:translateX(-900px)}7.87%{transform:translateX(-990px)}8.4%{transform:translateX(-1080px)}8.92%{transform:translateX(-1170px)}9.45%{transform:translateX(-1260px)}9.97%{transform:translateX(-1350px)}10.5%{transform:translateX(-1440px)}12.6%{transform:translateX(-1530px)}15.22%{transform:translateX(-1620px)}19.42%{transform:translateX(-1710px)}19.95%{transform:translateX(-1800px)}22.57%{transform:translateX(-1890px)}25.72%{transform:translateX(-1980px)}26.25%{transform:translateX(-2070px)}26.77%{transform:translateX(-2160px)}27.3%{transform:translateX(-2250px)}27.82%{transform:translateX(-2340px)}28.35%{transform:translateX(-2430px)}28.87%{transform:translateX(-2520px)}29.4%{transform:translateX(-2610px)}29.92%{transform:translateX(-2700px)}30.45%{transform:translateX(-2790px)}32.55%{transform:translateX(-2880px)}35.17%{transform:translateX(-2970px)}36.75%{transform:translateX(-3060px)}38.85%{transform:translateX(-3150px)}44.09%{transform:translateX(-3240px)}48.29%{transform:translateX(-3330px)}48.56%{transform:translateX(-3420px)}48.82%{transform:translateX(-3510px)}49.08%{transform:translateX(-3600px)}49.34%{transform:translateX(-3690px)}49.61%{transform:translateX(-3780px)}49.87%{transform:translateX(-3870px)}50.13%{transform:translateX(-3960px)}50.39%{transform:translateX(-4050px)}50.66%{transform:translateX(-4140px)}50.92%{transform:translateX(-4230px)}51.18%{transform:translateX(-4320px)}51.44%{transform:translateX(-4410px)}51.71%{transform:translateX(-4500px)}51.97%{transform:translateX(-4590px)}52.23%{transform:translateX(-4680px)}52.49%{transform:translateX(-4770px)}52.76%{transform:translateX(-4860px)}53.02%{transform:translateX(-4950px)}53.28%{transform:translateX(-5040px)}53.54%{transform:translateX(-5130px)}53.81%{transform:translateX(-5220px)}54.07%{transform:translateX(-5310px)}54.33%{transform:translateX(-5400px)}54.59%{transform:translateX(-5490px)}54.86%{transform:translateX(-5580px)}55.12%{transform:translateX(-5670px)}55.38%{transform:translateX(-5760px)}55.64%{transform:translateX(-5850px)}55.91%{transform:translateX(-5940px)}56.17%{transform:translateX(-6030px)}56.43%{transform:translateX(-6120px)}56.69%{transform:translateX(-6210px)}56.96%{transform:translateX(-6300px)}57.22%{transform:translateX(-6390px)}57.48%{transform:translateX(-6480px)}57.74%{transform:translateX(-6570px)}58.01%{transform:translateX(-6660px)}58.27%{transform:translateX(-6750px)}58.53%{transform:translateX(-6840px)}58.79%{transform:translateX(-6930px)}59.06%{transform:translateX(-7020px)}61.68%{transform:translateX(-7110px)}63.25%{transform:translateX(-7200px)}65.35%{transform:translateX(-7290px)}68.5%{transform:translateX(-7380px)}70.6%{transform:translateX(-7470px)}73.23%{transform:translateX(-7560px)}77.43%{transform:translateX(-7650px)}80.58%{transform:translateX(-7740px)}84.78%{transform:translateX(-7830px)}91.08%{transform:translateX(-7920px)}93.18%{transform:translateX(-8010px)}94.75%{transform:translateX(-8100px)}97.38%{transform:translateX(-8190px)}to{transform:translateX(-8280px)}}.a{fill:#282d35}.f,.g{fill:#b9c0cb;white-space:pre}.g{fill:#66c2cd}.h{fill:#a8cc8c}.h,.i,.j,.k,.m{white-space:pre}.i{fill:#b9c0cb;font-weight:700}.j,.k,.m{fill:#d290e4}.k,.m{fill:#dbab79}.m{fill:#6f7783}</style><g font-family="Monaco,Consolas,Menlo,'Bitstream Vera Sans Mono','Powerline Symbols',monospace" font-size="1.67"><defs><symbol id="1"><text y="1.67" class="f">$</text></symbol><symbol id="2"><text y="1.67" class="f">$</text><text x="2.004" y="1.67" class="f">o</text></symbol><symbol id="3"><text y="1.67" class="f">$</text><text x="2.004" y="1.67" class="f">oa</text></symbol><symbol id="4"><text y="1.67" class="f">$</text><text x="2.004" y="1.67" class="f">oah</text></symbol><symbol id="5"><text y="1.67" class="f">$</text><text x="2.004" y="1.67" class="f">oahl</text></symbol><symbol id="6"><text y="1.67" class="f">$</text><text x="2.004" y="1.67" class="f">oahl</text><text x="7.014" y="1.67" class="f">s</text></symbol><symbol id="7"><text y="1.67" class="f">$</text><text x="2.004" y="1.67" class="f">oahl</text><text x="7.014" y="1.67" class="f">scan-ports</text></symbol><symbol id="8"><text y="1.67" class="g">▶</text><text x="2.004" y="1.67" class="g">Scanning</text><text x="11.022" y="1.67" class="g">for</text><text x="15.03" y="1.67" class="g">USB/Serial</text><text x="26.052" y="1.67" class="g">devices...</text></symbol><symbol id="9"><text y="1.67" class="h">✔</text><text x="2.004" y="1.67" class="f">Discovered:</text><text x="14.028" y="1.67" class="i">TECNO</text><text x="20.04" y="1.67" class="i">Mobile</text><text x="27.054" y="1.67" class="i">Limited</text><text x="35.07" y="1.67" class="i">(TECNO-01)</text></symbol><symbol id="10"><text x="2.004" y="1.67" class="f">└─</text><text x="5.01" y="1.67" class="f">Assigning</text><text x="15.03" y="1.67" class="f">transport:</text><text x="26.052" y="1.67" class="j">ADB</text></symbol><symbol id="11"><text y="1.67" class="f">$</text><text x="2.004" y="1.67" class="f">oahl</text><text x="7.014" y="1.67" class="f">start</text></symbol><symbol id="12"><text y="1.67" class="k">⚡</text><text x="2.004" y="1.67" class="k">Node</text><text x="7.014" y="1.67" class="k">OAHL-LAB-01</text><text x="19.038" y="1.67" class="k">starting...</text></symbol><symbol id="13"><text y="1.67" class="h">✔</text><text x="2.004" y="1.67" class="f">Node</text><text x="7.014" y="1.67" class="i">OAHL-LAB-01</text><text x="19.038" y="1.67" class="f">listening</text><text x="29.058" y="1.67" class="f">on</text><text x="32.064" y="1.67" class="f">port</text><text x="37.074" y="1.67" class="f">3000</text></symbol><symbol id="14"><text y="1.67" style="white-space:pre" fill="#71bef2">↑</text><text x="2.004" y="1.67" class="f">Device</text><text x="9.018" y="1.67" class="i">[TECNO-01]</text><text x="20.04" y="1.67" class="f">successfully</text><text x="33.066" y="1.67" class="f">registered</text><text x="44.088" y="1.67" class="f">to</text><text x="47.094" y="1.67" class="f">Cloud</text><text x="53.106" y="1.67" class="f">Directory.</text></symbol><symbol id="15"><text y="1.67" class="f">$</text><text x="2.004" y="1.67" class="f">python</text></symbol><symbol id="16"><text y="1.67" class="f">$</text><text x="2.004" y="1.67" class="f">python</text><text x="9.018" y="1.67" class="f">agent.py</text></symbol><symbol id="17"><text y="1.67" class="f">$</text><text x="2.004" y="1.67" class="f">python</text><text x="9.018" y="1.67" class="f">agent.py</text><text x="18.036" y="1.67" class="f">&quot;Get</text></symbol><symbol id="18"><text y="1.67" class="f">$</text><text x="2.004" y="1.67" class="f">python</text><text x="9.018" y="1.67" class="f">agent.py</text><text x="18.036" y="1.67" class="f">&quot;Get</text><text x="23.046" y="1.67" class="f">battery</text></symbol><symbol id="19"><text y="1.67" class="f">$</text><text x="2.004" y="1.67" class="f">python</text><text x="9.018" y="1.67" class="f">agent.py</text><text x="18.036" y="1.67" class="f">&quot;Get</text><text x="23.046" y="1.67" class="f">battery</text><text x="31.062" y="1.67" class="f">&amp;</text></symbol><symbol id="20"><text y="1.67" class="f">$</text><text x="2.004" y="1.67" class="f">python</text><text x="9.018" y="1.67" class="f">agent.py</text><text x="18.036" y="1.67" class="f">&quot;Get</text><text x="23.046" y="1.67" class="f">battery</text><text x="31.062" y="1.67" class="f">&amp;</text><text x="33.066" y="1.67" class="f">screenshot&quot;</text></symbol><symbol id="21"><text y="1.67" class="m">[Agent]</text><text x="8.016" y="1.67" class="f">Initializing</text><text x="21.042" y="1.67" class="f">OAHL</text><text x="26.052" y="1.67" class="f">Cloud</text><text x="32.064" y="1.67" class="f">Client...</text></symbol><symbol id="22"><text y="1.67" class="m">[Agent]</text><text x="8.016" y="1.67" class="f">Requesting</text><text x="19.038" y="1.67" class="f">capability</text><text x="30.06" y="1.67" class="g">oahl.discover</text><text x="44.088" y="1.67" class="f">(query:</text><text x="52.104" y="1.67" class="f">mobile)</text></symbol><symbol id="23"><text y="1.67" class="m">[Agent]</text><text x="8.016" y="1.67" class="h">Found</text><text x="14.028" y="1.67" class="h">Match</text><text x="20.04" y="1.67" class="f">-&gt;</text><text x="23.046" y="1.67" class="f">Node:</text><text x="29.058" y="1.67" class="i">OAHL-LAB-01</text><text x="40.08" y="1.67" class="f">,</text><text x="42.084" y="1.67" class="f">Device:</text><text x="50.1" y="1.67" class="i">TECNO-01</text></symbol><symbol id="24"><text y="1.67" class="m">[Agent]</text><text x="8.016" y="1.67" class="f">Requesting</text><text x="19.038" y="1.67" class="f">exclusive</text><text x="29.058" y="1.67" class="f">session...</text><text x="40.08" y="1.67" class="h">GRANTED</text><text x="48.096" y="1.67" class="f">(Session</text><text x="57.114" y="1.67" class="f">ID:</text><text x="61.122" y="1.67" class="j">sess_9x2a4</text><text x="71.142" y="1.67" class="f">)</text></symbol><symbol id="25"><text y="1.67" class="m">[Agent]</text><text x="8.016" y="1.67" class="f">&amp;92þ0f</text><text x="15.03" y="1.67" class="f">Executing</text><text x="25.05" y="1.67" class="f">transport</text><text x="35.07" y="1.67" class="f">capability:</text><text x="47.094" y="1.67" class="k">adb</text><text x="51.102" y="1.67" class="k">shell</text><text x="57.114" y="1.67" class="k">dumpsys</text><text x="65.13" y="1.67" class="k">battery</text></symbol><symbol id="26"><text y="1.67" class="h">[OAHL]</text><text x="7.014" y="1.67" class="f">Success:</text><text x="16.032" y="1.67" class="f">Payload</text><text x="24.048" y="1.67" class="f">returned</text><text x="33.066" y="1.67" class="f">(Level:</text><text x="41.082" y="1.67" class="i">84%</text><text x="44.088" y="1.67" class="f">,</text><text x="46.092" y="1.67" class="f">Status:</text><text x="54.108" y="1.67" class="i">Discharging</text><text x="65.13" y="1.67" class="f">)</text></symbol><symbol id="27"><text y="1.67" class="m">[Agent]</text><text x="8.016" y="1.67" class="f">&amp;92þ0f</text><text x="15.03" y="1.67" class="f">Executing</text><text x="25.05" y="1.67" class="f">transport</text><text x="35.07" y="1.67" class="f">capability:</text><text x="47.094" y="1.67" class="k">adb</text><text x="51.102" y="1.67" class="k">shell</text><text x="57.114" y="1.67" class="k">screencap</text><text x="67.134" y="1.67" class="k">-p</text><text x="70.14" y="1.67" class="k">/sdcard/s.png</text></symbol><symbol id="28"><text y="1.67" class="h">[OAHL]</text><text x="7.014" y="1.67" class="f">Success:</text><text x="16.032" y="1.67" class="f">Execution</text><text x="26.052" y="1.67" class="f">complete.</text></symbol><symbol id="29"><text y="1.67" class="m">[Agent]</text><text x="8.016" y="1.67" class="f">↓</text><text x="10.02" y="1.67" class="f">Pulling</text><text x="18.036" y="1.67" class="f">screenshot</text><text x="29.058" y="1.67" class="f">asset...</text><text x="38.076" y="1.67" class="h">Done.</text><text x="44.088" y="1.67" class="h">(1.4MB)</text></symbol><symbol id="30"><text y="1.67" class="m">[Agent]</text><text x="8.016" y="1.67" class="f">Releasing</text><text x="18.036" y="1.67" class="f">session</text><text x="26.052" y="1.67" class="f">lock...</text><text x="34.068" y="1.67" class="h">RELEASED</text></symbol><symbol id="31"><text y="1.67" class="i">✨</text><text x="2.004" y="1.67" class="i">Task</text><text x="7.014" y="1.67" class="i">Complete:</text><text x="17.034" y="1.67" class="f">Phone</text><text x="23.046" y="1.67" class="f">battery</text><text x="31.062" y="1.67" class="f">is</text><text x="34.068" y="1.67" class="f">84%,</text><text x="39.078" y="1.67" class="f">screenshot</text><text x="50.1" y="1.67" class="f">saved</text><text x="56.112" y="1.67" class="f">to</text><text x="59.118" y="1.67" class="f">local</text><text x="65.13" y="1.67" class="f">disk.</text></symbol><symbol id="a"><path fill="transparent" d="M0 0h90v20H0z"/></symbol></defs><path class="a" d="M0 0h90v43.42H0z"/><g style="animation-duration:19.05s;animation-iteration-count:infinite;animation-name:o;animation-timing-function:steps(1,end)"><svg width="8370"><svg><use xlink:href="#a"/></svg><svg x="90"><use xlink:href="#a"/><use xlink:href="#1"/></svg><svg x="180"><use xlink:href="#a"/><use xlink:href="#2"/></svg><svg x="270"><use xlink:href="#a"/><use xlink:href="#3"/></svg><svg x="360"><use xlink:href="#a"/><use xlink:href="#4"/></svg><svg x="450"><use xlink:href="#a"/><use xlink:href="#5"/></svg><svg x="540"><use xlink:href="#a"/><use xlink:href="#5"/></svg><svg x="630"><use xlink:href="#a"/><use xlink:href="#6"/></svg><svg x="720"><use xlink:href="#a"/><text y="1.67" class="f">$</text><text x="2.004" y="1.67" class="f">oahl</text><text x="7.014" y="1.67" class="f">sc</text></svg><svg x="810"><use xlink:href="#a"/><text y="1.67" class="f">$</text><text x="2.004" y="1.67" class="f">oahl</text><text x="7.014" y="1.67" class="f">sca</text></svg><svg x="900"><use xlink:href="#a"/><text y="1.67" class="f">$</text><text x="2.004" y="1.67" class="f">oahl</text><text x="7.014" y="1.67" class="f">scan</text></svg><svg x="990"><use xlink:href="#a"/><text y="1.67" class="f">$</text><text x="2.004" y="1.67" class="f">oahl</text><text x="7.014" y="1.67" class="f">scan-</text></svg><svg x="1080"><use xlink:href="#a"/><text y="1.67" class="f">$</text><text x="2.004" y="1.67" class="f">oahl</text><text x="7.014" y="1.67" class="f">scan-p</text></svg><svg x="1170"><use xlink:href="#a"/><text y="1.67" class="f">$</text><text x="2.004" y="1.67" class="f">oahl</text><text x="7.014" y="1.67" class="f">scan-po</text></svg><svg x="1260"><use xlink:href="#a"/><text y="1.67" class="f">$</text><text x="2.004" y="1.67" class="f">oahl</text><text x="7.014" y="1.67" class="f">scan-por</text></svg><svg x="1350"><use xlink:href="#a"/><text y="1.67" class="f">$</text><text x="2.004" y="1.67" class="f">oahl</text><text x="7.014" y="1.67" class="f">scan-port</text></svg><svg x="1440"><use xlink:href="#a"/><use xlink:href="#7"/></svg><svg x="1530"><use xlink:href="#a"/><use xlink:href="#7"/></svg><svg x="1620"><use xlink:href="#a"/><use xlink:href="#7"/><use xlink:href="#8" y="2.171"/></svg><svg x="1710"><use xlink:href="#a"/><use xlink:href="#7"/><use xlink:href="#8" y="2.171"/><use xlink:href="#9" y="4.342"/></svg><svg x="1800"><use xlink:href="#a"/><use xlink:href="#7"/><use xlink:href="#8" y="2.171"/><use xlink:href="#9" y="4.342"/><use xlink:href="#10" y="6.513"/></svg><svg x="1890"><use xlink:href="#a"/><use xlink:href="#7"/><use xlink:href="#8" y="2.171"/><use xlink:href="#9" y="4.342"/><use xlink:href="#10" y="6.513"/><use xlink:href="#1" y="8.684"/></svg><svg x="1980"><use xlink:href="#a"/><use xlink:href="#7"/><use xlink:href="#8" y="2.171"/><use xlink:href="#9" y="4.342"/><use xlink:href="#10" y="6.513"/><use xlink:href="#2" y="8.684"/></svg><svg x="2070"><use xlink:href="#a"/><use xlink:href="#7"/><use xlink:href="#8" y="2.171"/><use xlink:href="#9" y="4.342"/><use xlink:href="#10" y="6.513"/><use xlink:href="#3" y="8.684"/></svg><svg x="2160"><use xlink:href="#a"/><use xlink:href="#7"/><use xlink:href="#8" y="2.171"/><use xlink:href="#9" y="4.342"/><use xlink:href="#10" y="6.513"/><use xlink:href="#4" y="8.684"/></svg><svg x="2250"><use xlink:href="#a"/><use xlink:href="#7"/><use xlink:href="#8" y="2.171"/><use xlink:href="#9" y="4.342"/><use xlink:href="#10" y="6.513"/><use xlink:href="#5" y="8.684"/></svg><svg x="2340"><use xlink:href="#a"/><use xlink:href="#7"/><use xlink:href="#8" y="2.171"/><use xlink:href="#9" y="4.342"/><use xlink:href="#10" y="6.513"/><use xlink:href="#5" y="8.684"/></svg><svg x="2430"><use xlink:href="#a"/><use xlink:href="#7"/><use xlink:href="#8" y="2.171"/><use xlink:href="#9" y="4.342"/><use xlink:href="#10" y="6.513"/><use xlink:href="#6" y="8.684"/></svg><svg x="2520"><use xlink:href="#a"/><use xlink:href="#7"/><use xlink:href="#8" y="2.171"/><use xlink:href="#9" y="4.342"/><use xlink:href="#10" y="6.513"/><text y="10.354" class="f">$</text><text x="2.004" y="10.354" class="f">oahl</text><text x="7.014" y="10.354" class="f">st</text></svg><svg x="2610"><use xlink:href="#a"/><use xlink:href="#7"/><use xlink:href="#8" y="2.171"/><use xlink:href="#9" y="4.342"/><use xlink:href="#10" y="6.513"/><text y="10.354" class="f">$</text><text x="2.004" y="10.354" class="f">oahl</text><text x="7.014" y="10.354" class="f">sta</text></svg><svg x="2700"><use xlink:href="#a"/><use xlink:href="#7"/><use xlink:href="#8" y="2.171"/><use xlink:href="#9" y="4.342"/><use xlink:href="#10" y="6.513"/><text y="10.354" class="f">$</text><text x="2.004" y="10.354" class="f">oahl</text><text x="7.014" y="10.354" class="f">star</text></svg><svg x="2790"><use xlink:href="#a"/><use xlink:href="#7"/><use xlink:href="#8" y="2.171"/><use xlink:href="#9" y="4.342"/><use xlink:href="#10" y="6.513"/><use xlink:href="#11" y="8.684"/></svg><svg x="2880"><use xlink:href="#a"/><use xlink:href="#7"/><use xlink:href="#8" y="2.171"/><use xlink:href="#9" y="4.342"/><use xlink:href="#10" y="6.513"/><use xlink:href="#11" y="8.684"/></svg><svg x="2970"><use xlink:href="#a"/><use xlink:href="#7"/><use xlink:href="#8" y="2.171"/><use xlink:href="#9" y="4.342"/><use xlink:href="#10" y="6.513"/><use xlink:href="#11" y="8.684"/><use xlink:href="#12" y="10.855"/></svg><svg x="3060"><use xlink:href="#a"/><use xlink:href="#7"/><use xlink:href="#8" y="2.171"/><use xlink:href="#9" y="4.342"/><use xlink:href="#10" y="6.513"/><use xlink:href="#11" y="8.684"/><use xlink:href="#12" y="10.855"/><use xlink:href="#13" y="13.026"/></svg><svg x="3150"><use xlink:href="#a"/><use xlink:href="#7"/><use xlink:href="#8" y="2.171"/><use xlink:href="#9" y="4.342"/><use xlink:href="#10" y="6.513"/><use xlink:href="#11" y="8.684"/><use xlink:href="#12" y="10.855"/><use xlink:href="#13" y="13.026"/><use xlink:href="#14" y="15.197"/></svg><svg x="3240"><use xlink:href="#a"/><use xlink:href="#7"/><use xlink:href="#8" y="2.171"/><use xlink:href="#9" y="4.342"/><use xlink:href="#10" y="6.513"/><use xlink:href="#11" y="8.684"/><use xlink:href="#12" y="10.855"/><use xlink:href="#13" y="13.026"/><use xlink:href="#14" y="15.197"/><use xlink:href="#1" y="17.368"/></svg><svg x="3330"><use xlink:href="#a"/><use xlink:href="#7"/><use xlink:href="#8" y="2.171"/><use xlink:href="#9" y="4.342"/><use xlink:href="#10" y="6.513"/><use xlink:href="#11" y="8.684"/><use xlink:href="#12" y="10.855"/><use xlink:href="#13" y="13.026"/><use xlink:href="#14" y="15.197"/><text y="19.038" class="f">$</text><text x="2.004" y="19.038" class="f">p</text></svg><svg x="3420"><use xlink:href="#a"/><use xlink:href="#7"/><use xlink:href="#8" y="2.171"/><use xlink:href="#9" y="4.342"/><use xlink:href="#10" y="6.513"/><use xlink:href="#11" y="8.684"/><use xlink:href="#12" y="10.855"/><use xlink:href="#13" y="13.026"/><use xlink:href="#14" y="15.197"/><text y="19.038" class="f">$</text><text x="2.004" y="19.038" class="f">py</text></svg><svg x="3510"><use xlink:href="#a"/><use xlink:href="#7"/><use xlink:href="#8" y="2.171"/><use xlink:href="#9" y="4.342"/><use xlink:href="#10" y="6.513"/><use xlink:href="#11" y="8.684"/><use xlink:href="#12" y="10.855"/><use xlink:href="#13" y="13.026"/><use xlink:href="#14" y="15.197"/><text y="19.038" class="f">$</text><text x="2.004" y="19.038" class="f">pyt</text></svg><svg x="3600"><use xlink:href="#a"/><use xlink:href="#7"/><use xlink:href="#8" y="2.171"/><use xlink:href="#9" y="4.342"/><use xlink:href="#10" y="6.513"/><use xlink:href="#11" y="8.684"/><use xlink:href="#12" y="10.855"/><use xlink:href="#13" y="13.026"/><use xlink:href="#14" y="15.197"/><text y="19.038" class="f">$</text><text x="2.004" y="19.038" class="f">pyth</text></svg><svg x="3690"><use xlink:href="#a"/><use xlink:href="#7"/><use xlink:href="#8" y="2.171"/><use xlink:href="#9" y="4.342"/><use xlink:href="#10" y="6.513"/><use xlink:href="#11" y="8.684"/><use xlink:href="#12" y="10.855"/><use xlink:href="#13" y="13.026"/><use xlink:href="#14" y="15.197"/><text y="19.038" class="f">$</text><text x="2.004" y="19.038" class="f">pytho</text></svg><svg x="3780"><use xlink:href="#a"/><use xlink:href="#7"/><use xlink:href="#8" y="2.171"/><use xlink:href="#9" y="4.342"/><use xlink:href="#10" y="6.513"/><use xlink:href="#11" y="8.684"/><use xlink:href="#12" y="10.855"/><use xlink:href="#13" y="13.026"/><use xlink:href="#14" y="15.197"/><use xlink:href="#15" y="17.368"/></svg><svg x="3870"><use xlink:href="#a"/><use xlink:href="#7"/><use xlink:href="#8" y="2.171"/><use xlink:href="#9" y="4.342"/><use xlink:href="#10" y="6.513"/><use xlink:href="#11" y="8.684"/><use xlink:href="#12" y="10.855"/><use xlink:href="#13" y="13.026"/><use xlink:href="#14" y="15.197"/><use xlink:href="#15" y="17.368"/></svg><svg x="3960"><use xlink:href="#a"/><use xlink:href="#7"/><use xlink:href="#8" y="2.171"/><use xlink:href="#9" y="4.342"/><use xlink:href="#10" y="6.513"/><use xlink:href="#11" y="8.684"/><use xlink:href="#12" y="10.855"/><use xlink:href="#13" y="13.026"/><use xlink:href="#14" y="15.197"/><text y="19.038" class="f">$</text><text x="2.004" y="19.038" class="f">python</text><text x="9.018" y="19.038" class="f">a</text></svg><svg x="4050"><use xlink:href="#a"/><use xlink:href="#7"/><use xlink:href="#8" y="2.171"/><use xlink:href="#9" y="4.342"/><use xlink:href="#10" y="6.513"/><use xlink:href="#11" y="8.684"/><use xlink:href="#12" y="10.855"/><use xlink:href="#13" y="13.026"/><use xlink:href="#14" y="15.197"/><text y="19.038" class="f">$</text><text x="2.004" y="19.038" class="f">python</text><text x="9.018" y="19.038" class="f">ag</text></svg><svg x="4140"><use xlink:href="#a"/><use xlink:href="#7"/><use xlink:href="#8" y="2.171"/><use xlink:href="#9" y="4.342"/><use xlink:href="#10" y="6.513"/><use xlink:href="#11" y="8.684"/><use xlink:href="#12" y="10.855"/><use xlink:href="#13" y="13.026"/><use xlink:href="#14" y="15.197"/><text y="19.038" class="f">$</text><text x="2.004" y="19.038" class="f">python</text><text x="9.018" y="19.038" class="f">age</text></svg><svg x="4230"><use xlink:href="#a"/><use xlink:href="#7"/><use xlink:href="#8" y="2.171"/><use xlink:href="#9" y="4.342"/><use xlink:href="#10" y="6.513"/><use xlink:href="#11" y="8.684"/><use xlink:href="#12" y="10.855"/><use xlink:href="#13" y="13.026"/><use xlink:href="#14" y="15.197"/><text y="19.038" class="f">$</text><text x="2.004" y="19.038" class="f">python</text><text x="9.018" y="19.038" class="f">agen</text></svg><svg x="4320"><use xlink:href="#a"/><use xlink:href="#7"/><use xlink:href="#8" y="2.171"/><use xlink:href="#9" y="4.342"/><use xlink:href="#10" y="6.513"/><use xlink:href="#11" y="8.684"/><use xlink:href="#12" y="10.855"/><use xlink:href="#13" y="13.026"/><use xlink:href="#14" y="15.197"/><text y="19.038" class="f">$</text><text x="2.004" y="19.038" class="f">python</text><text x="9.018" y="19.038" class="f">agent</text></svg><svg x="4410"><use xlink:href="#a"/><use xlink:href="#7"/><use xlink:href="#8" y="2.171"/><use xlink:href="#9" y="4.342"/><use xlink:href="#10" y="6.513"/><use xlink:href="#11" y="8.684"/><use xlink:href="#12" y="10.855"/><use xlink:href="#13" y="13.026"/><use xlink:href="#14" y="15.197"/><text y="19.038" class="f">$</text><text x="2.004" y="19.038" class="f">python</text><text x="9.018" y="19.038" class="f">agent.</text></svg><svg x="4500"><use xlink:href="#a"/><use xlink:href="#7"/><use xlink:href="#8" y="2.171"/><use xlink:href="#9" y="4.342"/><use xlink:href="#10" y="6.513"/><use xlink:href="#11" y="8.684"/><use xlink:href="#12" y="10.855"/><use xlink:href="#13" y="13.026"/><use xlink:href="#14" y="15.197"/><text y="19.038" class="f">$</text><text x="2.004" y="19.038" class="f">python</text><text x="9.018" y="19.038" class="f">agent.p</text></svg><svg x="4590"><use xlink:href="#a"/><use xlink:href="#7"/><use xlink:href="#8" y="2.171"/><use xlink:href="#9" y="4.342"/><use xlink:href="#10" y="6.513"/><use xlink:href="#11" y="8.684"/><use xlink:href="#12" y="10.855"/><use xlink:href="#13" y="13.026"/><use xlink:href="#14" y="15.197"/><use xlink:href="#16" y="17.368"/></svg><svg x="4680"><use xlink:href="#a"/><use xlink:href="#7"/><use xlink:href="#8" y="2.171"/><use xlink:href="#9" y="4.342"/><use xlink:href="#10" y="6.513"/><use xlink:href="#11" y="8.684"/><use xlink:href="#12" y="10.855"/><use xlink:href="#13" y="13.026"/><use xlink:href="#14" y="15.197"/><use xlink:href="#16" y="17.368"/></svg><svg x="4770"><use xlink:href="#a"/><use xlink:href="#7"/><use xlink:href="#8" y="2.171"/><use xlink:href="#9" y="4.342"/><use xlink:href="#10" y="6.513"/><use xlink:href="#11" y="8.684"/><use xlink:href="#12" y="10.855"/><use xlink:href="#13" y="13.026"/><use xlink:href="#14" y="15.197"/><text y="19.038" class="f">$</text><text x="2.004" y="19.038" class="f">python</text><text x="9.018" y="19.038" class="f">agent.py</text><text x="18.036" y="19.038" class="f">&quot;</text></svg><svg x="4860"><use xlink:href="#a"/><use xlink:href="#7"/><use xlink:href="#8" y="2.171"/><use xlink:href="#9" y="4.342"/><use xlink:href="#10" y="6.513"/><use xlink:href="#11" y="8.684"/><use xlink:href="#12" y="10.855"/><use xlink:href="#13" y="13.026"/><use xlink:href="#14" y="15.197"/><text y="19.038" class="f">$</text><text x="2.004" y="19.038" class="f">python</text><text x="9.018" y="19.038" class="f">agent.py</text><text x="18.036" y="19.038" class="f">&quot;G</text></svg><svg x="4950"><use xlink:href="#a"/><use xlink:href="#7"/><use xlink:href="#8" y="2.171"/><use xlink:href="#9" y="4.342"/><use xlink:href="#10" y="6.513"/><use xlink:href="#11" y="8.684"/><use xlink:href="#12" y="10.855"/><use xlink:href="#13" y="13.026"/><use xlink:href="#14" y="15.197"/><text y="19.038" class="f">$</text><text x="2.004" y="19.038" class="f">python</text><text x="9.018" y="19.038" class="f">agent.py</text><text x="18.036" y="19.038" class="f">&quot;Ge</text></svg><svg x="5040"><use xlink:href="#a"/><use xlink:href="#7"/><use xlink:href="#8" y="2.171"/><use xlink:href="#9" y="4.342"/><use xlink:href="#10" y="6.513"/><use xlink:href="#11" y="8.684"/><use xlink:href="#12" y="10.855"/><use xlink:href="#13" y="13.026"/><use xlink:href="#14" y="15.197"/><use xlink:href="#17" y="17.368"/></svg><svg x="5130"><use xlink:href="#a"/><use xlink:href="#7"/><use xlink:href="#8" y="2.171"/><use xlink:href="#9" y="4.342"/><use xlink:href="#10" y="6.513"/><use xlink:href="#11" y="8.684"/><use xlink:href="#12" y="10.855"/><use xlink:href="#13" y="13.026"/><use xlink:href="#14" y="15.197"/><use xlink:href="#17" y="17.368"/></svg><svg x="5220"><use xlink:href="#a"/><use xlink:href="#7"/><use xlink:href="#8" y="2.171"/><use xlink:href="#9" y="4.342"/><use xlink:href="#10" y="6.513"/><use xlink:href="#11" y="8.684"/><use xlink:href="#12" y="10.855"/><use xlink:href="#13" y="13.026"/><use xlink:href="#14" y="15.197"/><text y="19.038" class="f">$</text><text x="2.004" y="19.038" class="f">python</text><text x="9.018" y="19.038" class="f">agent.py</text><text x="18.036" y="19.038" class="f">&quot;Get</text><text x="23.046" y="19.038" class="f">b</text></svg><svg x="5310"><use xlink:href="#a"/><use xlink:href="#7"/><use xlink:href="#8" y="2.171"/><use xlink:href="#9" y="4.342"/><use xlink:href="#10" y="6.513"/><use xlink:href="#11" y="8.684"/><use xlink:href="#12" y="10.855"/><use xlink:href="#13" y="13.026"/><use xlink:href="#14" y="15.197"/><text y="19.038" class="f">$</text><text x="2.004" y="19.038" class="f">python</text><text x="9.018" y="19.038" class="f">agent.py</text><text x="18.036" y="19.038" class="f">&quot;Get</text><text x="23.046" y="19.038" class="f">ba</text></svg><svg x="5400"><use xlink:href="#a"/><use xlink:href="#7"/><use xlink:href="#8" y="2.171"/><use xlink:href="#9" y="4.342"/><use xlink:href="#10" y="6.513"/><use xlink:href="#11" y="8.684"/><use xlink:href="#12" y="10.855"/><use xlink:href="#13" y="13.026"/><use xlink:href="#14" y="15.197"/><text y="19.038" class="f">$</text><text x="2.004" y="19.038" class="f">python</text><text x="9.018" y="19.038" class="f">agent.py</text><text x="18.036" y="19.038" class="f">&quot;Get</text><text x="23.046" y="19.038" class="f">bat</text></svg><svg x="5490"><use xlink:href="#a"/><use xlink:href="#7"/><use xlink:href="#8" y="2.171"/><use xlink:href="#9" y="4.342"/><use xlink:href="#10" y="6.513"/><use xlink:href="#11" y="8.684"/><use xlink:href="#12" y="10.855"/><use xlink:href="#13" y="13.026"/><use xlink:href="#14" y="15.197"/><text y="19.038" class="f">$</text><text x="2.004" y="19.038" class="f">python</text><text x="9.018" y="19.038" class="f">agent.py</text><text x="18.036" y="19.038" class="f">&quot;Get</text><text x="23.046" y="19.038" class="f">batt</text></svg><svg x="5580"><use xlink:href="#a"/><use xlink:href="#7"/><use xlink:href="#8" y="2.171"/><use xlink:href="#9" y="4.342"/><use xlink:href="#10" y="6.513"/><use xlink:href="#11" y="8.684"/><use xlink:href="#12" y="10.855"/><use xlink:href="#13" y="13.026"/><use xlink:href="#14" y="15.197"/><text y="19.038" class="f">$</text><text x="2.004" y="19.038" class="f">python</text><text x="9.018" y="19.038" class="f">agent.py</text><text x="18.036" y="19.038" class="f">&quot;Get</text><text x="23.046" y="19.038" class="f">batte</text></svg><svg x="5670"><use xlink:href="#a"/><use xlink:href="#7"/><use xlink:href="#8" y="2.171"/><use xlink:href="#9" y="4.342"/><use xlink:href="#10" y="6.513"/><use xlink:href="#11" y="8.684"/><use xlink:href="#12" y="10.855"/><use xlink:href="#13" y="13.026"/><use xlink:href="#14" y="15.197"/><text y="19.038" class="f">$</text><text x="2.004" y="19.038" class="f">python</text><text x="9.018" y="19.038" class="f">agent.py</text><text x="18.036" y="19.038" class="f">&quot;Get</text><text x="23.046" y="19.038" class="f">batter</text></svg><svg x="5760"><use xlink:href="#a"/><use xlink:href="#7"/><use xlink:href="#8" y="2.171"/><use xlink:href="#9" y="4.342"/><use xlink:href="#10" y="6.513"/><use xlink:href="#11" y="8.684"/><use xlink:href="#12" y="10.855"/><use xlink:href="#13" y="13.026"/><use xlink:href="#14" y="15.197"/><use xlink:href="#18" y="17.368"/></svg><svg x="5850"><use xlink:href="#a"/><use xlink:href="#7"/><use xlink:href="#8" y="2.171"/><use xlink:href="#9" y="4.342"/><use xlink:href="#10" y="6.513"/><use xlink:href="#11" y="8.684"/><use xlink:href="#12" y="10.855"/><use xlink:href="#13" y="13.026"/><use xlink:href="#14" y="15.197"/><use xlink:href="#18" y="17.368"/></svg><svg x="5940"><use xlink:href="#a"/><use xlink:href="#7"/><use xlink:href="#8" y="2.171"/><use xlink:href="#9" y="4.342"/><use xlink:href="#10" y="6.513"/><use xlink:href="#11" y="8.684"/><use xlink:href="#12" y="10.855"/><use xlink:href="#13" y="13.026"/><use xlink:href="#14" y="15.197"/><use xlink:href="#19" y="17.368"/></svg><svg x="6030"><use xlink:href="#a"/><use xlink:href="#7"/><use xlink:href="#8" y="2.171"/><use xlink:href="#9" y="4.342"/><use xlink:href="#10" y="6.513"/><use xlink:href="#11" y="8.684"/><use xlink:href="#12" y="10.855"/><use xlink:href="#13" y="13.026"/><use xlink:href="#14" y="15.197"/><use xlink:href="#19" y="17.368"/></svg><svg x="6120"><use xlink:href="#a"/><use xlink:href="#7"/><use xlink:href="#8" y="2.171"/><use xlink:href="#9" y="4.342"/><use xlink:href="#10" y="6.513"/><use xlink:href="#11" y="8.684"/><use xlink:href="#12" y="10.855"/><use xlink:href="#13" y="13.026"/><use xlink:href="#14" y="15.197"/><text y="19.038" class="f">$</text><text x="2.004" y="19.038" class="f">python</text><text x="9.018" y="19.038" class="f">agent.py</text><text x="18.036" y="19.038" class="f">&quot;Get</text><text x="23.046" y="19.038" class="f">battery</text><text x="31.062" y="19.038" class="f">&amp;</text><text x="33.066" y="19.038" class="f">s</text></svg><svg x="6210"><use xlink:href="#a"/><use xlink:href="#7"/><use xlink:href="#8" y="2.171"/><use xlink:href="#9" y="4.342"/><use xlink:href="#10" y="6.513"/><use xlink:href="#11" y="8.684"/><use xlink:href="#12" y="10.855"/><use xlink:href="#13" y="13.026"/><use xlink:href="#14" y="15.197"/><text y="19.038" class="f">$</text><text x="2.004" y="19.038" class="f">python</text><text x="9.018" y="19.038" class="f">agent.py</text><text x="18.036" y="19.038" class="f">&quot;Get</text><text x="23.046" y="19.038" class="f">battery</text><text x="31.062" y="19.038" class="f">&amp;</text><text x="33.066" y="19.038" class="f">sc</text></svg><svg x="6300"><use xlink:href="#a"/><use xlink:href="#7"/><use xlink:href="#8" y="2.171"/><use xlink:href="#9" y="4.342"/><use xlink:href="#10" y="6.513"/><use xlink:href="#11" y="8.684"/><use xlink:href="#12" y="10.855"/><use xlink:href="#13" y="13.026"/><use xlink:href="#14" y="15.197"/><text y="19.038" class="f">$</text><text x="2.004" y="19.038" class="f">python</text><text x="9.018" y="19.038" class="f">agent.py</text><text x="18.036" y="19.038" class="f">&quot;Get</text><text x="23.046" y="19.038" class="f">battery</text><text x="31.062" y="19.038" class="f">&amp;</text><text x="33.066" y="19.038" class="f">scr</text></svg><svg x="6390"><use xlink:href="#a"/><use xlink:href="#7"/><use xlink:href="#8" y="2.171"/><use xlink:href="#9" y="4.342"/><use xlink:href="#10" y="6.513"/><use xlink:href="#11" y="8.684"/><use xlink:href="#12" y="10.855"/><use xlink:href="#13" y="13.026"/><use xlink:href="#14" y="15.197"/><text y="19.038" class="f">$</text><text x="2.004" y="19.038" class="f">python</text><text x="9.018" y="19.038" class="f">agent.py</text><text x="18.036" y="19.038" class="f">&quot;Get</text><text x="23.046" y="19.038" class="f">battery</text><text x="31.062" y="19.038" class="f">&amp;</text><text x="33.066" y="19.038" class="f">scre</text></svg><svg x="6480"><use xlink:href="#a"/><use xlink:href="#7"/><use xlink:href="#8" y="2.171"/><use xlink:href="#9" y="4.342"/><use xlink:href="#10" y="6.513"/><use xlink:href="#11" y="8.684"/><use xlink:href="#12" y="10.855"/><use xlink:href="#13" y="13.026"/><use xlink:href="#14" y="15.197"/><text y="19.038" class="f">$</text><text x="2.004" y="19.038" class="f">python</text><text x="9.018" y="19.038" class="f">agent.py</text><text x="18.036" y="19.038" class="f">&quot;Get</text><text x="23.046" y="19.038" class="f">battery</text><text x="31.062" y="19.038" class="f">&amp;</text><text x="33.066" y="19.038" class="f">scree</text></svg><svg x="6570"><use xlink:href="#a"/><use xlink:href="#7"/><use xlink:href="#8" y="2.171"/><use xlink:href="#9" y="4.342"/><use xlink:href="#10" y="6.513"/><use xlink:href="#11" y="8.684"/><use xlink:href="#12" y="10.855"/><use xlink:href="#13" y="13.026"/><use xlink:href="#14" y="15.197"/><text y="19.038" class="f">$</text><text x="2.004" y="19.038" class="f">python</text><text x="9.018" y="19.038" class="f">agent.py</text><text x="18.036" y="19.038" class="f">&quot;Get</text><text x="23.046" y="19.038" class="f">battery</text><text x="31.062" y="19.038" class="f">&amp;</text><text x="33.066" y="19.038" class="f">screen</text></svg><svg x="6660"><use xlink:href="#a"/><use xlink:href="#7"/><use xlink:href="#8" y="2.171"/><use xlink:href="#9" y="4.342"/><use xlink:href="#10" y="6.513"/><use xlink:href="#11" y="8.684"/><use xlink:href="#12" y="10.855"/><use xlink:href="#13" y="13.026"/><use xlink:href="#14" y="15.197"/><text y="19.038" class="f">$</text><text x="2.004" y="19.038" class="f">python</text><text x="9.018" y="19.038" class="f">agent.py</text><text x="18.036" y="19.038" class="f">&quot;Get</text><text x="23.046" y="19.038" class="f">battery</text><text x="31.062" y="19.038" class="f">&amp;</text><text x="33.066" y="19.038" class="f">screens</text></svg><svg x="6750"><use xlink:href="#a"/><use xlink:href="#7"/><use xlink:href="#8" y="2.171"/><use xlink:href="#9" y="4.342"/><use xlink:href="#10" y="6.513"/><use xlink:href="#11" y="8.684"/><use xlink:href="#12" y="10.855"/><use xlink:href="#13" y="13.026"/><use xlink:href="#14" y="15.197"/><text y="19.038" class="f">$</text><text x="2.004" y="19.038" class="f">python</text><text x="9.018" y="19.038" class="f">agent.py</text><text x="18.036" y="19.038" class="f">&quot;Get</text><text x="23.046" y="19.038" class="f">battery</text><text x="31.062" y="19.038" class="f">&amp;</text><text x="33.066" y="19.038" class="f">screensh</text></svg><svg x="6840"><use xlink:href="#a"/><use xlink:href="#7"/><use xlink:href="#8" y="2.171"/><use xlink:href="#9" y="4.342"/><use xlink:href="#10" y="6.513"/><use xlink:href="#11" y="8.684"/><use xlink:href="#12" y="10.855"/><use xlink:href="#13" y="13.026"/><use xlink:href="#14" y="15.197"/><text y="19.038" class="f">$</text><text x="2.004" y="19.038" class="f">python</text><text x="9.018" y="19.038" class="f">agent.py</text><text x="18.036" y="19.038" class="f">&quot;Get</text><text x="23.046" y="19.038" class="f">battery</text><text x="31.062" y="19.038" class="f">&amp;</text><text x="33.066" y="19.038" class="f">screensho</text></svg><svg x="6930"><use xlink:href="#a"/><use xlink:href="#7"/><use xlink:href="#8" y="2.171"/><use xlink:href="#9" y="4.342"/><use xlink:href="#10" y="6.513"/><use xlink:href="#11" y="8.684"/><use xlink:href="#12" y="10.855"/><use xlink:href="#13" y="13.026"/><use xlink:href="#14" y="15.197"/><text y="19.038" class="f">$</text><text x="2.004" y="19.038" class="f">python</text><text x="9.018" y="19.038" class="f">agent.py</text><text x="18.036" y="19.038" class="f">&quot;Get</text><text x="23.046" y="19.038" class="f">battery</text><text x="31.062" y="19.038" class="f">&amp;</text><text x="33.066" y="19.038" class="f">screenshot</text></svg><svg x="7020"><use xlink:href="#a"/><use xlink:href="#7"/><use xlink:href="#8" y="2.171"/><use xlink:href="#9" y="4.342"/><use xlink:href="#10" y="6.513"/><use xlink:href="#11" y="8.684"/><use xlink:href="#12" y="10.855"/><use xlink:href="#13" y="13.026"/><use xlink:href="#14" y="15.197"/><use xlink:href="#20" y="17.368"/></svg><svg x="7110"><use xlink:href="#a"/><use xlink:href="#7"/><use xlink:href="#8" y="2.171"/><use xlink:href="#9" y="4.342"/><use xlink:href="#10" y="6.513"/><use xlink:href="#11" y="8.684"/><use xlink:href="#12" y="10.855"/><use xlink:href="#13" y="13.026"/><use xlink:href="#14" y="15.197"/><use xlink:href="#20" y="17.368"/></svg><svg x="7200"><use xlink:href="#a"/><use xlink:href="#7"/><use xlink:href="#8" y="2.171"/><use xlink:href="#9" y="4.342"/><use xlink:href="#10" y="6.513"/><use xlink:href="#11" y="8.684"/><use xlink:href="#12" y="10.855"/><use xlink:href="#13" y="13.026"/><use xlink:href="#14" y="15.197"/><use xlink:href="#20" y="17.368"/><use xlink:href="#21" y="19.539"/></svg><svg x="7290"><use xlink:href="#a"/><use xlink:href="#7"/><use xlink:href="#8" y="2.171"/><use xlink:href="#9" y="4.342"/><use xlink:href="#10" y="6.513"/><use xlink:href="#11" y="8.684"/><use xlink:href="#12" y="10.855"/><use xlink:href="#13" y="13.026"/><use xlink:href="#14" y="15.197"/><use xlink:href="#20" y="17.368"/><use xlink:href="#21" y="19.539"/><use xlink:href="#22" y="21.71"/></svg><svg x="7380"><use xlink:href="#a"/><use xlink:href="#7"/><use xlink:href="#8" y="2.171"/><use xlink:href="#9" y="4.342"/><use xlink:href="#10" y="6.513"/><use xlink:href="#11" y="8.684"/><use xlink:href="#12" y="10.855"/><use xlink:href="#13" y="13.026"/><use xlink:href="#14" y="15.197"/><use xlink:href="#20" y="17.368"/><use xlink:href="#21" y="19.539"/><use xlink:href="#22" y="21.71"/><use xlink:href="#23" y="23.881"/></svg><svg x="7470"><use xlink:href="#a"/><use xlink:href="#7"/><use xlink:href="#8" y="2.171"/><use xlink:href="#9" y="4.342"/><use xlink:href="#10" y="6.513"/><use xlink:href="#11" y="8.684"/><use xlink:href="#12" y="10.855"/><use xlink:href="#13" y="13.026"/><use xlink:href="#14" y="15.197"/><use xlink:href="#20" y="17.368"/><use xlink:href="#21" y="19.539"/><use xlink:href="#22" y="21.71"/><use xlink:href="#23" y="23.881"/><text y="27.722" class="m">[Agent]</text><text x="8.016" y="27.722" class="f">Requesting</text><text x="19.038" y="27.722" class="f">exclusive</text><text x="29.058" y="27.722" class="f">session...</text></svg><svg x="7560"><use xlink:href="#a"/><use xlink:href="#7"/><use xlink:href="#8" y="2.171"/><use xlink:href="#9" y="4.342"/><use xlink:href="#10" y="6.513"/><use xlink:href="#11" y="8.684"/><use xlink:href="#12" y="10.855"/><use xlink:href="#13" y="13.026"/><use xlink:href="#14" y="15.197"/><use xlink:href="#20" y="17.368"/><use xlink:href="#21" y="19.539"/><use xlink:href="#22" y="21.71"/><use xlink:href="#23" y="23.881"/><use xlink:href="#24" y="26.052"/></svg><svg x="7650"><use xlink:href="#a"/><use xlink:href="#7"/><use xlink:href="#8" y="2.171"/><use xlink:href="#9" y="4.342"/><use xlink:href="#10" y="6.513"/><use xlink:href="#11" y="8.684"/><use xlink:href="#12" y="10.855"/><use xlink:href="#13" y="13.026"/><use xlink:href="#14" y="15.197"/><use xlink:href="#20" y="17.368"/><use xlink:href="#21" y="19.539"/><use xlink:href="#22" y="21.71"/><use xlink:href="#23" y="23.881"/><use xlink:href="#24" y="26.052"/><use xlink:href="#25" y="28.223"/></svg><svg x="7740"><use xlink:href="#a"/><use xlink:href="#7"/><use xlink:href="#8" y="2.171"/><use xlink:href="#9" y="4.342"/><use xlink:href="#10" y="6.513"/><use xlink:href="#11" y="8.684"/><use xlink:href="#12" y="10.855"/><use xlink:href="#13" y="13.026"/><use xlink:href="#14" y="15.197"/><use xlink:href="#20" y="17.368"/><use xlink:href="#21" y="19.539"/><use xlink:href="#22" y="21.71"/><use xlink:href="#23" y="23.881"/><use xlink:href="#24" y="26.052"/><use xlink:href="#25" y="28.223"/><use xlink:href="#26" y="30.394"/></svg><svg x="7830"><use xlink:href="#a"/><use xlink:href="#7"/><use xlink:href="#8" y="2.171"/><use xlink:href="#9" y="4.342"/><use xlink:href="#10" y="6.513"/><use xlink:href="#11" y="8.684"/><use xlink:href="#12" y="10.855"/><use xlink:href="#13" y="13.026"/><use xlink:href="#14" y="15.197"/><use xlink:href="#20" y="17.368"/><use xlink:href="#21" y="19.539"/><use xlink:href="#22" y="21.71"/><use xlink:href="#23" y="23.881"/><use xlink:href="#24" y="26.052"/><use xlink:href="#25" y="28.223"/><use xlink:href="#26" y="30.394"/><use xlink:href="#27" y="32.565"/></svg><svg x="7920"><use xlink:href="#a"/><use xlink:href="#7"/><use xlink:href="#8" y="2.171"/><use xlink:href="#9" y="4.342"/><use xlink:href="#10" y="6.513"/><use xlink:href="#11" y="8.684"/><use xlink:href="#12" y="10.855"/><use xlink:href="#13" y="13.026"/><use xlink:href="#14" y="15.197"/><use xlink:href="#20" y="17.368"/><use xlink:href="#21" y="19.539"/><use xlink:href="#22" y="21.71"/><use xlink:href="#23" y="23.881"/><use xlink:href="#24" y="26.052"/><use xlink:href="#25" y="28.223"/><use xlink:href="#26" y="30.394"/><use xlink:href="#27" y="32.565"/><use xlink:href="#28" y="34.736"/></svg><svg x="8010"><use xlink:href="#a"/><use xlink:href="#7"/><use xlink:href="#8" y="2.171"/><use xlink:href="#9" y="4.342"/><use xlink:href="#10" y="6.513"/><use xlink:href="#11" y="8.684"/><use xlink:href="#12" y="10.855"/><use xlink:href="#13" y="13.026"/><use xlink:href="#14" y="15.197"/><use xlink:href="#20" y="17.368"/><use xlink:href="#21" y="19.539"/><use xlink:href="#22" y="21.71"/><use xlink:href="#23" y="23.881"/><use xlink:href="#24" y="26.052"/><use xlink:href="#25" y="28.223"/><use xlink:href="#26" y="30.394"/><use xlink:href="#27" y="32.565"/><use xlink:href="#28" y="34.736"/><use xlink:href="#29" y="36.907"/></svg><svg x="8100"><use xlink:href="#a"/><use xlink:href="#7"/><use xlink:href="#8" y="2.171"/><use xlink:href="#9" y="4.342"/><use xlink:href="#10" y="6.513"/><use xlink:href="#11" y="8.684"/><use xlink:href="#12" y="10.855"/><use xlink:href="#13" y="13.026"/><use xlink:href="#14" y="15.197"/><use xlink:href="#20" y="17.368"/><use xlink:href="#21" y="19.539"/><use xlink:href="#22" y="21.71"/><use xlink:href="#23" y="23.881"/><use xlink:href="#24" y="26.052"/><use xlink:href="#25" y="28.223"/><use xlink:href="#26" y="30.394"/><use xlink:href="#27" y="32.565"/><use xlink:href="#28" y="34.736"/><use xlink:href="#29" y="36.907"/><use xlink:href="#30" y="39.078"/></svg><svg x="8190"><use xlink:href="#a"/><use xlink:href="#9"/><use xlink:href="#10" y="2.171"/><use xlink:href="#11" y="4.342"/><use xlink:href="#12" y="6.513"/><use xlink:href="#13" y="8.684"/><use xlink:href="#14" y="10.855"/><use xlink:href="#20" y="13.026"/><use xlink:href="#21" y="15.197"/><use xlink:href="#22" y="17.368"/><use xlink:href="#23" y="19.539"/><use xlink:href="#24" y="21.71"/><use xlink:href="#25" y="23.881"/><use xlink:href="#26" y="26.052"/><use xlink:href="#27" y="28.223"/><use xlink:href="#28" y="30.394"/><use xlink:href="#29" y="32.565"/><use xlink:href="#30" y="34.736"/><use xlink:href="#31" y="39.078"/></svg><svg x="8280"><use xlink:href="#a"/><use xlink:href="#9"/><use xlink:href="#10" y="2.171"/><use xlink:href="#11" y="4.342"/><use xlink:href="#12" y="6.513"/><use xlink:href="#13" y="8.684"/><use xlink:href="#14" y="10.855"/><use xlink:href="#20" y="13.026"/><use xlink:href="#21" y="15.197"/><use xlink:href="#22" y="17.368"/><use xlink:href="#23" y="19.539"/><use xlink:href="#24" y="21.71"/><use xlink:href="#25" y="23.881"/><use xlink:href="#26" y="26.052"/><use xlink:href="#27" y="28.223"/><use xlink:href="#28" y="30.394"/><use xlink:href="#29" y="32.565"/><use xlink:href="#30" y="34.736"/><use xlink:href="#31" y="39.078"/><use xlink:href="#1" y="41.249"/></svg></svg></g></g></svg></svg>